<?xml version="1.0" standalone="no"?>
<!DOCTYPE svg PUBLIC "-//W3C//DTD SVG 20010904//EN"
 "http://www.w3.org/TR/2001/REC-SVG-20010904/DTD/svg10.dtd">
<svg version="1.0" xmlns="http://www.w3.org/2000/svg"
 width="272.000000pt" height="362.000000pt" viewBox="0 0 272.000000 362.000000"
 preserveAspectRatio="xMidYMid meet">

<g transform="translate(0.000000,362.000000) scale(0.100000,-0.100000)"
fill="#000000" stroke="none">
<path d="M1327 3439 c-10 -6 -53 -13 -95 -16 -42 -4 -90 -12 -107 -19 -16 -7
-70 -51 -119 -98 -49 -47 -97 -88 -107 -91 -21 -7 -111 -105 -126 -138 -26
-56 -35 -104 -33 -175 2 -87 2 -99 0 -127 0 -11 0 -84 2 -163 2 -78 0 -142 -3
-142 -3 0 -15 -9 -27 -20 -19 -18 -22 -32 -22 -94 0 -89 10 -167 20 -161 5 3
6 -4 3 -14 -7 -26 14 -62 32 -55 8 4 15 1 15 -5 0 -6 6 -8 13 -6 15 6 44 -11
34 -21 -3 -4 -13 -1 -22 6 -8 7 -15 9 -15 5 0 -4 -7 -2 -15 5 -20 16 -19 0 1
-28 9 -13 22 -21 30 -18 8 3 13 0 11 -6 -1 -7 3 -12 10 -13 6 0 15 -4 20 -9 5
-5 3 -6 -4 -2 -7 4 -13 4 -13 -1 0 -13 14 -29 30 -35 9 -3 25 -39 38 -89 12
-46 31 -111 42 -144 27 -83 27 -166 -1 -191 -12 -10 -63 -74 -115 -140 -79
-104 -99 -123 -136 -136 -178 -63 -338 -139 -555 -266 l-113 -65 0 -483 0
-484 1360 0 1360 0 0 505 c0 280 -4 505 -9 505 -5 0 -42 22 -82 48 -110 71
-175 105 -261 136 -42 15 -107 46 -144 68 -37 22 -87 49 -111 60 -39 17 -55
35 -127 146 -91 139 -107 167 -101 173 2 3 7 20 10 39 5 28 4 33 -6 23 -7 -7
-13 -33 -13 -58 -1 -29 -5 -45 -13 -45 -7 0 -13 -4 -13 -10 0 -5 5 -10 11 -10
8 0 10 -37 7 -127 -7 -176 -43 -271 -171 -452 -62 -87 -78 -128 -39 -100 10 6
1 -3 -18 -20 -74 -68 -155 -137 -190 -162 l-36 -26 -33 39 c-20 24 -63 54
-114 80 -45 22 -109 61 -142 86 -33 25 -62 47 -63 48 -2 1 -1 12 3 24 6 19 12
21 41 17 19 -3 34 -3 34 0 0 5 -40 64 -50 73 -20 18 -54 133 -42 145 3 3 1 5
-4 5 -5 0 -10 32 -10 70 -2 80 6 86 54 40 18 -17 30 -30 27 -30 -3 0 28 -33
69 -72 40 -40 75 -78 77 -84 2 -6 17 -14 32 -18 18 -4 26 -3 23 3 -4 5 13 13
39 16 25 4 45 9 45 10 0 2 -13 17 -29 34 -30 32 -47 68 -38 78 3 2 58 14 122
24 64 11 138 30 163 41 59 28 172 135 172 162 -1 19 -2 20 -13 4 -7 -9 -25
-20 -39 -23 -16 -4 -25 -12 -22 -20 3 -7 -2 -15 -10 -18 -9 -4 -16 -1 -16 6
-1 7 -7 1 -15 -13 -7 -14 -15 -23 -18 -20 -2 3 -11 -1 -20 -8 -24 -20 -85 -32
-91 -18 -2 6 -5 3 -5 -6 -1 -11 -9 -18 -22 -18 -11 0 -17 5 -14 10 3 6 3 15
-1 21 -4 8 -9 7 -14 -2 -12 -18 -38 -20 -44 -3 -4 10 -14 12 -30 8 -17 -4 -31
0 -42 11 -10 10 -27 15 -41 12 -12 -2 -23 -1 -23 2 0 4 -9 7 -21 8 -11 1 -29
13 -40 27 -11 14 -26 25 -32 23 -8 -1 -11 8 -9 26 1 15 -2 27 -7 27 -6 0 -7
-7 -4 -17 4 -11 3 -14 -5 -9 -15 9 -15 39 -1 53 6 6 8 19 5 29 -3 11 -6 23 -6
27 1 4 -6 14 -13 22 -11 11 -12 24 -4 64 5 28 12 51 16 51 3 -1 19 -21 34 -45
22 -35 27 -52 22 -76 l-7 -30 54 0 c29 1 80 1 113 1 94 1 115 3 115 12 0 4
-19 9 -42 9 -24 1 -47 2 -53 4 -5 1 -17 3 -25 3 -24 3 -100 55 -100 69 0 6 -8
16 -17 22 -34 19 -3 23 96 12 55 -6 106 -9 113 -7 7 3 60 7 116 10 57 2 106 7
109 10 19 19 -46 31 -74 13 -6 -4 -58 -9 -115 -11 -105 -3 -185 11 -206 37 -8
9 -28 11 -71 7 l-60 -6 19 21 c11 12 20 24 20 27 0 10 -74 6 -87 -5 -9 -7 -13
-4 -13 8 0 13 -6 16 -22 12 -24 -6 -68 22 -68 42 0 6 -11 18 -24 26 -29 19
-46 58 -49 108 -1 20 -5 37 -8 37 -15 0 -31 98 -17 106 14 9 8 26 -7 20 -9 -3
-15 0 -15 10 0 8 5 12 10 9 13 -8 13 21 0 46 -7 12 -7 19 -1 19 5 0 13 -9 16
-21 15 -47 161 -79 283 -61 l63 9 -6 -29 c-5 -21 -3 -28 9 -28 9 0 16 -5 16
-11 0 -6 20 28 44 77 66 133 96 199 96 213 0 7 8 11 17 9 17 -3 59 -68 83
-128 23 -61 54 -95 91 -100 19 -3 88 -5 154 -4 149 0 176 12 209 87 13 29 28
63 34 77 10 24 11 23 11 -12 1 -22 11 -52 26 -74 25 -36 35 -31 14 7 -8 15 -7
24 3 37 11 13 11 15 -4 9 -13 -5 -18 -1 -18 13 0 11 5 20 10 20 6 0 10 7 10
16 0 11 8 15 28 12 24 -3 27 1 30 28 2 16 -2 43 -9 60 -11 28 -11 28 -19 8
-15 -39 -29 -37 -27 3 1 26 7 38 17 38 8 1 14 7 12 15 -2 7 -5 81 -8 163 -2
82 -7 154 -10 158 -2 5 -14 46 -25 91 -28 121 -38 147 -76 210 -30 49 -119
138 -138 138 -4 0 -26 16 -50 35 -52 43 -152 85 -201 85 -23 0 -41 6 -49 17
-11 14 -17 15 -37 6 -17 -7 -39 -8 -69 -2 -83 18 -114 19 -132 8z m276 -339
c-3 -12 -2 -20 3 -19 5 1 16 0 24 -3 8 -3 49 -13 90 -23 41 -9 89 -23 107 -31
17 -8 35 -14 41 -14 5 0 15 -7 22 -15 6 -8 15 -14 18 -13 41 5 65 -40 63 -119
-1 -35 3 -72 9 -82 7 -14 7 -20 -1 -23 -14 -5 15 -78 38 -96 13 -9 18 -31 20
-84 1 -59 5 -74 20 -79 16 -7 16 -8 1 -8 -9 -1 -23 5 -31 13 -8 9 -24 12 -36
9 -11 -3 -21 -1 -21 4 0 6 -12 8 -26 5 -15 -3 -24 -1 -21 4 3 5 -4 10 -16 10
-88 1 -118 5 -111 15 3 6 15 8 27 5 15 -4 17 -2 8 7 -6 6 -45 13 -86 15 -68 4
-76 2 -97 -21 -14 -15 -40 -27 -66 -32 -24 -4 -51 -16 -60 -26 -9 -10 -19 -15
-22 -11 -3 4 -39 16 -80 26 -41 10 -84 27 -96 37 -14 13 -47 22 -105 30 -46 5
-99 15 -116 21 -29 10 -35 9 -55 -9 -13 -12 -35 -24 -49 -28 l-26 -6 9 53 c7
42 13 173 9 186 -1 1 -2 5 -3 10 -1 4 -8 13 -15 21 -14 14 -8 53 9 60 6 2 5 7
-2 11 -20 13 6 50 36 50 17 0 23 4 18 12 -5 8 -2 9 10 5 12 -5 28 1 47 17 25
21 106 54 180 73 13 3 62 6 109 7 47 1 91 5 98 9 7 5 12 3 12 -4 0 -8 4 -8 15
1 9 7 14 18 11 25 -2 6 2 12 10 12 7 0 11 -4 8 -9 -7 -11 -1 -10 37 7 19 8 35
14 36 15 0 0 -1 -9 -4 -20z m-480 -557 c-7 -2 -19 -2 -25 0 -7 3 -2 5 12 5 14
0 19 -2 13 -5z m785 -34 c91 -16 117 -42 108 -111 -10 -73 -44 -156 -72 -175
-32 -20 -222 -30 -281 -14 -59 16 -79 42 -98 122 -19 87 -19 133 1 150 41 34
222 49 342 28z m-1056 -40 c4 -28 3 -29 -33 -29 -29 0 -41 5 -49 21 -18 33 -7
45 38 41 35 -3 41 -7 44 -33z m298 31 c-13 -8 -13 -9 0 -14 8 -2 22 -7 30 -9
8 -3 -8 -6 -37 -6 -38 -1 -54 3 -61 15 -8 15 -11 15 -30 -4 -23 -23 -83 -33
-89 -16 -7 21 63 40 152 42 34 1 45 -1 35 -8z m216 -15 c18 -13 17 -14 -16
-15 -20 0 -41 -5 -48 -12 -9 -9 -12 -7 -12 8 0 12 3 24 7 27 11 12 48 8 69 -8z
m-133 -47 c29 -15 15 -18 -28 -7 -21 6 -55 9 -77 7 -21 -2 -38 0 -38 4 0 18
106 15 143 -4z m-123 -51 c0 -8 11 -24 24 -36 33 -31 74 -22 89 19 13 35 18
36 41 11 17 -18 17 -20 -1 -30 -16 -9 -15 -10 7 -11 23 -1 24 -1 6 -12 -11 -6
-28 -11 -39 -12 -11 -1 -22 -6 -24 -11 -5 -15 93 -11 111 4 9 8 16 24 16 37 0
15 6 24 16 24 12 0 15 -5 9 -22 -4 -13 -8 -37 -9 -55 -5 -72 -67 -97 -230 -92
-128 5 -147 13 -165 76 -9 31 -9 32 16 22 13 -5 29 -7 34 -4 5 3 17 1 28 -5
14 -7 27 -7 45 1 19 9 29 9 40 0 10 -8 16 -9 21 -1 3 6 10 8 14 5 5 -2 17 2
27 10 18 13 16 14 -21 15 -71 1 -81 7 -77 46 4 32 22 49 22 21z"/>
<path d="M1888 2553 c7 -3 16 -2 19 1 4 3 -2 6 -13 5 -11 0 -14 -3 -6 -6z"/>
<path d="M1747 2494 c-2 -3 -17 -7 -33 -10 -40 -7 -61 -31 -72 -81 -9 -37 -8
-43 7 -44 12 0 12 -2 -4 -9 -18 -8 -17 -9 6 -7 18 1 25 6 25 21 -1 31 19 29
31 -5 11 -27 15 -30 50 -27 31 2 41 8 53 35 12 26 18 30 33 22 9 -6 17 -21 17
-34 0 -13 4 -26 9 -29 10 -6 71 71 71 88 0 12 -114 69 -142 72 -9 0 -23 4 -31
7 -8 3 -17 3 -20 1z m111 -50 c12 -8 22 -21 22 -28 0 -11 -10 -11 -52 0 -29 8
-60 14 -70 14 -10 0 -18 7 -18 15 0 21 88 20 118 -1z"/>
<path d="M1708 2303 c7 -3 16 -2 19 1 4 3 -2 6 -13 5 -11 0 -14 -3 -6 -6z"/>
<path d="M2046 2188 c-3 -13 -5 -36 -5 -53 1 -21 4 -15 10 20 8 52 6 72 -5 33z"/>
<path d="M1295 2089 c-4 -6 -5 -12 -2 -15 2 -3 7 2 10 11 7 17 1 20 -8 4z"/>
<path d="M2025 2055 c-3 -26 -4 -49 -2 -51 3 -3 8 16 12 41 3 26 4 49 2 51 -3
3 -8 -16 -12 -41z"/>
<path d="M1314 1986 c-3 -8 -13 -12 -25 -9 -17 5 -18 2 -9 -24 7 -20 22 -33
45 -42 32 -11 48 -31 26 -31 -14 0 -6 -33 9 -38 8 -3 11 1 8 10 -9 21 14 45
52 55 18 5 35 14 38 21 2 7 -2 10 -11 6 -9 -3 -25 8 -42 30 -20 27 -35 36 -57
36 -16 0 -31 -6 -34 -14z"/>
<path d="M1550 1970 c0 -5 5 -10 11 -10 6 0 9 -7 5 -15 -3 -9 0 -15 8 -15 16
0 29 27 20 41 -7 12 -44 11 -44 -1z"/>
<path d="M1391 1876 c-7 -8 -8 -17 -3 -20 6 -3 13 1 16 10 9 23 2 28 -13 10z"/>
<path d="M1292 1848 c3 -7 13 -15 24 -17 16 -3 17 -1 5 13 -16 19 -34 21 -29
4z"/>
<path d="M1735 1782 c26 -26 40 -26 30 1 -4 8 -17 17 -31 20 l-24 4 25 -25z"/>
<path d="M1951 1773 c-10 -26 -10 -27 4 -9 8 11 15 23 15 28 0 15 -7 8 -19
-19z"/>
<path d="M1923 1716 c-6 -8 -9 -16 -7 -19 3 -3 1 -15 -6 -26 -6 -12 -8 -21 -6
-21 3 0 15 18 26 40 20 39 17 52 -7 26z"/>
<path d="M1207 1650 c6 -21 33 -36 33 -17 0 7 -9 18 -19 24 -16 10 -18 9 -14
-7z"/>
</g>
</svg>
